<?xml version="1.0"?>
<svg xmlns="http://www.w3.org/2000/svg" viewBox="0 0 32 32">
    <path d="M 16 3 C 15.076588 3 14.184681 3.1677283 13.34375 3.4375 C 13.166307 3.4944239 12.985548 3.5261045 12.8125 3.59375 C 11.365765 4.0706303 10.096662 4.9116706 9.125 6.15625 C 9.1069492 6.1793708 9.0803461 6.1953498 9.0625 6.21875 C 7.1559984 8.3009862 6 11.148945 6 14 C 6 17.622473 7.04243 21.271521 8.78125 24.09375 C 10.52007 26.915979 13.035254 29 16 29 C 18.967764 29 21.480643 26.889575 23.21875 24.0625 C 24.956857 21.235425 26 17.601268 26 14 C 26 11.148945 24.844002 8.3009862 22.9375 6.21875 C 22.917906 6.1973494 22.894751 6.1774887 22.875 6.15625 C 21.903338 4.9116706 20.634235 4.0706303 19.1875 3.59375 C 19.014452 3.5261045 18.833693 3.4944239 18.65625 3.4375 C 17.815319 3.1677283 16.923412 3 16 3 z M 22 9.09375 C 22 9.09375 22.5 9.3 23 10 C 23.7 11.2 23.69375 13.19375 23.09375 15.09375 L 22.6875 16.8125 L 22.59375 17.5 C 22.59375 17.5 21.9875 17.6 21.6875 18 C 21.3875 18.3 21.90625 19.09375 21.90625 19.09375 C 21.90625 19.09375 21.30625 18.8125 20.90625 18.8125 C 20.50625 19.0125 20.2875 19.40625 19.6875 19.90625 C 19.0875 19.50625 18.39375 18.59375 18.09375 18.09375 C 17.69375 17.49375 16.8125 17 16.8125 17 C 16.9125 16.5 16.90625 13.90625 16.90625 13.90625 C 16.90625 13.90625 17.8125 16.10625 18.8125 15.90625 C 19.5125 15.70625 20.0125 15.00625 20.3125 13.90625 C 20.9125 12.00625 20.5 11 20.5 11 L 21.09375 11.3125 C 21.39375 11.5125 22.10625 11.5125 22.40625 10.8125 C 22.70625 10.1125 22 9.09375 22 9.09375 z M 10 9.1875 C 10 9.1875 9.29375 10.10625 9.59375 10.90625 C 9.79375 11.60625 10.60625 11.60625 10.90625 11.40625 C 11.10625 11.20625 11.5 11 11.5 11 C 11.5 11 11.09375 11.9875 11.59375 13.6875 C 11.89375 14.8875 12.49375 15.5875 13.09375 15.6875 C 13.99375 15.8875 15 13.6875 15 13.6875 C 15 13.6875 15.09375 16.3125 15.09375 16.8125 C 15.09375 16.8125 14.2125 17.30625 13.8125 17.90625 C 13.5125 18.40625 12.7875 19.3875 12.1875 19.6875 C 11.5875 19.2875 11.4 18.79375 11 18.59375 C 10.6 18.59375 10 18.90625 10 18.90625 C 10 18.90625 10.6125 18.30625 10.3125 17.90625 C 10.0125 17.50625 9.40625 17.40625 9.40625 17.40625 L 9.3125 16.6875 L 8.8125 15.09375 C 8.3125 13.29375 8.2 11.29375 9 10.09375 C 9.4 9.39375 10 9.1875 10 9.1875 z M 14.8125 20.34375 C 14.845313 20.329687 14.925 20.40625 15 20.40625 C 15.2 22.10625 15.5 23.59375 15.5 23.59375 C 15.5 23.59375 15.98324 22.347479 16 20.40625 C 16.108261 22.347699 16.5 23.59375 16.5 23.59375 C 16.5 23.59375 16.9 22.10625 17 20.40625 L 17.1875 20.40625 C 17.2875 21.80625 17.59375 22.90625 17.59375 22.90625 C 17.59375 22.90625 17.9875 21.59375 18.1875 20.59375 C 18.2875 20.59375 18.30625 20.5875 18.40625 20.6875 C 18.50625 22.4875 18.6875 23.3125 18.6875 23.3125 C 18.6875 23.3125 19.1 22.3 19.5 21 C 19.6 21 19.6875 21.09375 19.6875 21.09375 C 19.5875 22.69375 19.8125 23.6875 19.8125 23.6875 C 19.8125 23.6875 20.3 22.4 20.5 21.5 L 20.59375 21.59375 L 20.59375 23 C 20.59375 23 20.9 22.29375 21 22.09375 C 21.2 22.69375 19.9875 24.40625 19.6875 24.90625 C 19.617972 25.114835 19.388468 25.448309 19.0625 25.8125 C 19.036847 25.841161 19.027017 25.877524 19 25.90625 C 18.982114 25.919585 18.955431 25.924392 18.9375 25.9375 C 18.814774 26.02722 18.68719 26.108578 18.5625 26.1875 C 18.509226 25.871454 18.3125 25.40625 18.3125 25.40625 C 18.3125 25.40625 18.141333 26.032415 18.0625 26.46875 C 17.94611 26.527724 17.836325 26.575678 17.71875 26.625 C 17.590977 26.180206 17.40625 25.6875 17.40625 25.6875 C 17.40625 25.6875 17.214823 26.376767 17.1875 26.8125 C 17.115568 26.833321 17.040956 26.857898 16.96875 26.875 C 16.912526 26.090878 16.59375 25.09375 16.59375 25.09375 C 16.59375 25.09375 16.119301 26.386262 16.03125 27 C 16.02089 27.00008 16.010362 27 16 27 C 15.927562 26.387522 15.5 25.09375 15.5 25.09375 C 15.5 25.09375 15.174552 26.118066 15.125 26.90625 C 15.043086 26.888678 14.956569 26.866122 14.875 26.84375 C 14.830909 26.419611 14.6875 25.6875 14.6875 25.6875 C 14.6875 25.6875 14.501944 26.201288 14.375 26.65625 C 14.261 26.610905 14.144169 26.585683 14.03125 26.53125 C 13.960012 26.100997 13.8125 25.40625 13.8125 25.40625 C 13.8125 25.40625 13.574069 25.903516 13.53125 26.21875 C 13.442192 26.164113 13.338096 26.122657 13.25 26.0625 C 12.796381 25.621398 12.490865 25.160096 12.40625 24.90625 C 12.00625 24.40625 10.8 22.69375 11 22.09375 C 11.1 22.39375 11.40625 23 11.40625 23 L 11.40625 21.59375 L 11.5 21.5 C 11.7 22.4 12.1875 23.6875 12.1875 23.6875 C 12.1875 23.6875 12.4125 22.69375 12.3125 21.09375 C 12.4125 21.09375 12.5 21 12.5 21 C 12.9 22.3 13.3125 23.3125 13.3125 23.3125 C 13.3125 23.3125 13.49375 22.4875 13.59375 20.6875 C 13.69375 20.6875 13.7125 20.69375 13.8125 20.59375 C 14.0125 21.69375 14.40625 22.90625 14.40625 22.90625 C 14.40625 22.90625 14.7125 21.80625 14.8125 20.40625 C 14.8125 20.38125 14.801562 20.348437 14.8125 20.34375 z"/>
</svg>
